<svg xmlns="http://www.w3.org/2000/svg" width="24" height="24" viewBox="0 0 24 24"><path fill="#ddd" d="M12.05 2.852c1.83 0 3.27 0 4.41.12c1.17.12 2.11.38 2.92.97c.49.35.92.78 1.27 1.27c.59.81.85 1.76.98 2.92c.12 1.14.12 2.58.12 4.42v.09c0 1.84 0 3.28-.12 4.42c-.13 1.17-.39 2.11-.98 2.92c-.35.49-.78.92-1.27 1.27c-.81.58-1.75.84-2.92.97c-1.14.12-2.58.12-4.41.12h-.1c-1.83 0-3.27 0-4.41-.12c-1.17-.12-2.11-.38-2.92-.97c-.49-.35-.92-.78-1.27-1.27c-.59-.81-.85-1.76-.98-2.92c-.12-1.14-.12-2.58-.12-4.42v-.09c0-1.84 0-3.28.12-4.42c.13-1.17.39-2.11.98-2.92c.35-.49.78-.92 1.27-1.27c.81-.58 1.75-.84 2.92-.97c1.14-.12 2.58-.12 4.41-.12zM5.5 5.162c-.36.26-.68.58-.94.94c-.37.51-.58 1.16-.69 2.2c-.12 1.05-.12 2.41-.12 4.3s0 3.25.12 4.3c.11 1.04.32 1.69.69 2.2c.26.36.58.68.94.94c.51.37 1.16.59 2.2.7c1.05.12 2.41.12 4.3.12s3.25-.01 4.3-.12c1.04-.12 1.69-.33 2.2-.7c.36-.26.68-.58.94-.94c.37-.51.58-1.16.7-2.2c.11-1.05.11-2.41.11-4.3s0-3.25-.11-4.3c-.12-1.04-.33-1.69-.7-2.2c-.26-.36-.58-.68-.94-.94c-.51-.37-1.16-.59-2.2-.7c-1.05-.12-2.41-.12-4.3-.12s-3.25.01-4.3.12c-1.04.12-1.69.33-2.2.7m.93 1.95c.27-.31.75-.35 1.06-.08l1.23 1.06l.03.03c.23.2.46.39.62.58c.18.2.38.5.38.9s-.2.7-.38.9c-.16.18-.39.38-.62.58l-.03.03l-1.23 1.06c-.31.27-.79.24-1.06-.08a.757.757 0 0 1 .08-1.06l1.23-1.06c.2-.17.33-.29.42-.38c-.09-.09-.22-.2-.42-.38l-1.23-1.06a.756.756 0 0 1-.08-1.06zm3.82 4.49c0-.41.34-.75.75-.75h3c.41 0 .75.34.75.75s-.34.75-.75.75h-3c-.41 0-.75-.34-.75-.75" color="#ddd"/></svg>
