<svg width="64" height="64" viewBox="0 0 64 64" xmlns="http://www.w3.org/2000/svg" fill="none">
  <g stroke="#fff" stroke-width="0.6">
    <!-- Connections between every pair of nodes -->
    <!-- These lines were calculated based on positions -->
    <line x1="32" y1="8" x2="48" y2="14"/>
    <line x1="32" y1="8" x2="56" y2="32"/>
    <line x1="32" y1="8" x2="48" y2="50"/>
    <line x1="32" y1="8" x2="32" y2="56"/>
    <line x1="32" y1="8" x2="16" y2="50"/>
    <line x1="32" y1="8" x2="8" y2="32"/>
    <line x1="32" y1="8" x2="16" y2="14"/>

    <line x1="48" y1="14" x2="56" y2="32"/>
    <line x1="48" y1="14" x2="48" y2="50"/>
    <line x1="48" y1="14" x2="32" y2="56"/>
    <line x1="48" y1="14" x2="16" y2="50"/>
    <line x1="48" y1="14" x2="8" y2="32"/>
    <line x1="48" y1="14" x2="16" y2="14"/>

    <line x1="56" y1="32" x2="48" y2="50"/>
    <line x1="56" y1="32" x2="32" y2="56"/>
    <line x1="56" y1="32" x2="16" y2="50"/>
    <line x1="56" y1="32" x2="8" y2="32"/>
    <line x1="56" y1="32" x2="16" y2="14"/>

    <line x1="48" y1="50" x2="32" y2="56"/>
    <line x1="48" y1="50" x2="16" y2="50"/>
    <line x1="48" y1="50" x2="8" y2="32"/>
    <line x1="48" y1="50" x2="16" y2="14"/>

    <line x1="32" y1="56" x2="16" y2="50"/>
    <line x1="32" y1="56" x2="8" y2="32"/>
    <line x1="32" y1="56" x2="16" y2="14"/>

    <line x1="16" y1="50" x2="8" y2="32"/>
    <line x1="16" y1="50" x2="16" y2="14"/>

    <line x1="8" y1="32" x2="16" y2="14"/>
  </g>

  <!-- Nodes -->
  <circle cx="32" cy="8" r="2" fill="#fff"/>
  <circle cx="48" cy="14" r="2" fill="#fff"/>
  <circle cx="56" cy="32" r="2" fill="#fff"/>
  <circle cx="48" cy="50" r="2" fill="#fff"/>
  <circle cx="32" cy="56" r="2" fill="#fff"/>
  <circle cx="16" cy="50" r="2" fill="#fff"/>
  <circle cx="8" cy="32" r="2" fill="#fff"/>
  <circle cx="16" cy="14" r="2" fill="#fff"/>
  <circle cx="32" cy="32" r="2" fill="#fff"/>
</svg>
